<svg width="30" height="30" viewBox="0 0 30 30" fill="none" xmlns="http://www.w3.org/2000/svg">
<g clip-path="url(#clip0)">
<path d="M10.8205 24.1211C10.6119 24.16 10.5208 24.2579 10.547 24.414C10.573 24.5702 10.6901 24.6224 10.8984 24.5702C11.107 24.5182 11.1981 24.4268 11.1719 24.2967C11.146 24.1536 11.0288 24.0949 10.8205 24.1211Z" fill="#E5E5E5"/>
<path d="M9.70716 24.2775C9.49879 24.2775 9.39467 24.3487 9.39467 24.4922C9.39467 24.6615 9.50542 24.7329 9.72666 24.7069C9.93503 24.7069 10.0393 24.6353 10.0393 24.4922C10.0393 24.3232 9.92854 24.2513 9.70716 24.2775Z" fill="#E5E5E5"/>
<path d="M8.18375 24.2185C8.13176 24.3618 8.21645 24.4592 8.43762 24.5115C8.63293 24.5893 8.75668 24.5504 8.80867 24.3943C8.84781 24.2512 8.76311 24.1473 8.5548 24.0818C8.35943 24.0298 8.23581 24.0748 8.18375 24.2185Z" fill="#E5E5E5"/>
<path d="M28.3496 1.65024C27.2493 0.550148 25.9247 0 24.3749 0H5.62497C4.07563 0 2.75061 0.550148 1.65024 1.65024C0.550149 2.75054 0 4.07556 0 5.62496V24.3751C0 25.9246 0.550149 27.2495 1.65024 28.3496C2.75054 29.4499 4.07563 30 5.62497 30H9.99995C10.2862 30 10.5012 29.9902 10.6444 29.971C10.7875 29.9513 10.9306 29.8666 11.0739 29.7168C11.2173 29.5671 11.2887 29.349 11.2887 29.0626C11.2887 29.0238 11.2853 28.5806 11.2789 27.7343C11.2722 26.8878 11.269 26.2173 11.269 25.7224L10.8198 25.8006C10.5333 25.8526 10.172 25.8755 9.73576 25.8689C9.29971 25.8624 8.84712 25.8169 8.37844 25.7323C7.9095 25.6475 7.47346 25.4523 7.06977 25.1465C6.66629 24.8403 6.37986 24.44 6.21055 23.9453L6.01517 23.4958C5.88499 23.1967 5.68003 22.8645 5.40003 22.5002C5.12004 22.1354 4.83689 21.888 4.55046 21.7578L4.41371 21.6601C4.32265 21.5951 4.23803 21.5166 4.15984 21.4255C4.08179 21.3342 4.02323 21.243 3.98417 21.1521C3.9451 21.0608 3.97753 20.9859 4.08179 20.9271C4.18604 20.8686 4.37465 20.8396 4.64822 20.8396L5.0387 20.8981C5.2992 20.9501 5.62127 21.1062 6.0056 21.3668C6.38965 21.6271 6.70536 21.9656 6.95279 22.3822C7.25243 22.9162 7.61342 23.3228 8.03681 23.6028C8.45985 23.8831 8.88638 24.023 9.316 24.023C9.74561 24.023 10.1167 23.9905 10.4293 23.9256C10.7416 23.8604 11.0346 23.7625 11.3081 23.6323C11.4253 22.76 11.7444 22.089 12.2651 21.6204C11.523 21.5422 10.8557 21.4251 10.2631 21.2687C9.67077 21.1124 9.05871 20.8586 8.42729 20.5069C7.7956 20.1553 7.27158 19.7194 6.8549 19.1983C6.43828 18.6771 6.09637 17.9936 5.82965 17.1475C5.56278 16.3009 5.42931 15.3242 5.42931 14.2176C5.42931 12.6422 5.94382 11.3008 6.97243 10.1942C6.49055 9.00931 6.53604 7.68135 7.10904 6.20986C7.48666 6.09261 8.04666 6.18058 8.78876 6.47358C9.53101 6.76678 10.0745 7.0175 10.4196 7.22553C10.7648 7.43364 11.0414 7.60958 11.2498 7.75297C12.461 7.41441 13.7109 7.24517 14.9999 7.24517C16.2888 7.24517 17.5389 7.41441 18.7501 7.75297L19.4923 7.28423C20.0003 6.9716 20.5992 6.68517 21.2894 6.42487C21.9795 6.16451 22.5067 6.09281 22.8715 6.21007C23.4572 7.68155 23.5096 9.00951 23.0274 10.1943C24.056 11.3011 24.5706 12.6424 24.5706 14.2178C24.5706 15.3247 24.4371 16.3046 24.1703 17.1573C23.9036 18.0101 23.5588 18.694 23.1352 19.2083C22.7122 19.7226 22.1848 20.1552 21.5533 20.5071C20.9218 20.8585 20.3098 21.1127 19.7172 21.2686C19.1247 21.425 18.4575 21.5425 17.7154 21.6207C18.392 22.2064 18.7305 23.1306 18.7305 24.3939V29.062C18.7305 29.2835 18.7628 29.4623 18.8279 29.5991C18.8935 29.7358 18.9974 29.8299 19.1406 29.8824C19.2844 29.9344 19.4108 29.9669 19.5217 29.9798C19.6327 29.9929 19.7919 29.9994 20.0002 29.9994H24.3752C25.9246 29.9994 27.2497 29.4493 28.3495 28.349C29.4498 27.2487 29.9999 25.9236 29.9999 24.3743V5.62496C29.9998 4.07556 29.4496 2.75033 28.3496 1.65024Z" fill="#E5E5E5"/>
<path d="M5.93746 21.8359C5.84641 21.9008 5.85941 22.005 5.97659 22.1482C6.10698 22.2783 6.21103 22.298 6.28922 22.2067C6.38027 22.1419 6.36728 22.0377 6.24989 21.8942C6.11977 21.7772 6.01565 21.7575 5.93746 21.8359Z" fill="#E5E5E5"/>
<path d="M5.29311 21.3476C5.25412 21.439 5.29968 21.5172 5.42986 21.582C5.53391 21.6473 5.61881 21.6345 5.68373 21.5431C5.72272 21.4518 5.67716 21.3736 5.54698 21.3083C5.4168 21.2692 5.33217 21.2823 5.29311 21.3476Z" fill="#E5E5E5"/>
<path d="M6.54309 22.5978C6.42577 22.6626 6.42577 22.7801 6.54309 22.9492C6.66028 23.1187 6.77076 23.1641 6.87508 23.0859C6.99233 22.9946 6.99233 22.8709 6.87508 22.7146C6.77103 22.5458 6.66028 22.5062 6.54309 22.5978Z" fill="#E5E5E5"/>
<path d="M7.22684 23.4763C7.10959 23.5807 7.13545 23.7039 7.30497 23.8477C7.46101 24.0036 7.59126 24.0232 7.69545 23.9057C7.79971 23.8018 7.77364 23.6782 7.61733 23.535C7.46128 23.379 7.33103 23.3593 7.22684 23.4763Z" fill="#E5E5E5"/>
</g>
<defs>
<clipPath id="clip0">
<rect width="30" height="30" fill="white"/>
</clipPath>
</defs>
</svg>
