<svg width="400" height="400" viewBox="0 0 400 400" fill="none" xmlns="http://www.w3.org/2000/svg">
<path d="M400 305.92H0V306.12H400V305.92Z" fill="#EBEBEB"/>
<path d="M189.6 270.24H35.128C33.9179 270.238 32.758 269.756 31.9031 268.899C31.0482 268.043 30.568 266.882 30.568 265.672V48.528C30.5785 47.3248 31.0634 46.1744 31.9172 45.3266C32.771 44.4788 33.9248 44.0021 35.128 44H189.6C190.812 44 191.973 44.4813 192.83 45.3379C193.687 46.1946 194.168 47.3565 194.168 48.568V265.672C194.168 266.884 193.687 268.045 192.83 268.902C191.973 269.759 190.812 270.24 189.6 270.24ZM35.128 44.16C33.9709 44.1621 32.862 44.6233 32.0445 45.4422C31.2271 46.2611 30.768 47.3709 30.768 48.528V265.672C30.768 266.829 31.2271 267.939 32.0445 268.758C32.862 269.577 33.9709 270.038 35.128 270.04H189.6C190.758 270.038 191.868 269.577 192.686 268.758C193.505 267.94 193.966 266.83 193.968 265.672V48.528C193.966 47.3702 193.505 46.2604 192.686 45.4417C191.868 44.623 190.758 44.1621 189.6 44.16H35.128Z" fill="#EBEBEB"/>
<path d="M362.648 270.24H208.168C206.957 270.238 205.796 269.756 204.94 268.9C204.084 268.044 203.602 266.883 203.6 265.672V48.528C203.613 47.3241 204.099 46.1737 204.954 45.3261C205.809 44.4785 206.964 44.002 208.168 44H362.648C363.85 44.0042 365.002 44.4818 365.854 45.3294C366.706 46.177 367.189 47.3262 367.2 48.528V265.672C367.2 266.881 366.721 268.04 365.868 268.896C365.014 269.753 363.857 270.236 362.648 270.24ZM208.168 44.16C207.01 44.1621 205.9 44.623 205.082 45.4417C204.263 46.2604 203.802 47.3702 203.8 48.528V265.672C203.802 266.83 204.263 267.94 205.082 268.758C205.9 269.577 207.01 270.038 208.168 270.04H362.648C363.806 270.038 364.916 269.577 365.734 268.758C366.553 267.94 367.014 266.83 367.016 265.672V48.528C367.014 47.3702 366.553 46.2604 365.734 45.4417C364.916 44.623 363.806 44.1621 362.648 44.16H208.168Z" fill="#EBEBEB"/>
<path d="M160.352 313.536H139.552V313.736H160.352V313.536Z" fill="#EBEBEB"/>
<path d="M85.248 311.368H41.968V311.568H85.248V311.368Z" fill="#EBEBEB"/>
<path d="M138.752 320.968H117.696V321.168H138.752V320.968Z" fill="#EBEBEB"/>
<path d="M237.648 319.624H206.584V319.824H237.648V319.624Z" fill="#EBEBEB"/>
<path d="M253.32 319.624H244.768V319.824H253.32V319.624Z" fill="#EBEBEB"/>
<path d="M359.928 316.248H316.28V316.448H359.928V316.248Z" fill="#EBEBEB"/>
<path d="M304.848 298.824H341.368V198.448H304.848V298.824Z" fill="#F0F0F0"/>
<path d="M145.384 305.912H334.352V298.816H145.384V305.912Z" fill="#F0F0F0"/>
<path d="M304.848 198.44H138.376V298.816H304.848V198.44Z" fill="#F5F5F5"/>
<path d="M305.488 205.24H138.376V241.984H305.488V205.24Z" fill="#F0F0F0"/>
<path d="M305.488 248.68H138.376V285.424H305.488V248.68Z" fill="#F0F0F0"/>
<path d="M304.848 241.976H311.168V205.232H304.848V241.976Z" fill="#E6E6E6"/>
<path d="M304.848 285.416H311.168V248.672H304.848V285.416Z" fill="#E6E6E6"/>
<path d="M133.512 198.44L304.848 198.44V192.264L133.512 192.264V198.44Z" fill="#F0F0F0"/>
<path d="M346.472 192.264H304.848V198.44H346.472V192.264Z" fill="#E6E6E6"/>
<path d="M262.52 173.384H348.464V65.352L262.52 65.352V173.384Z" fill="#F0F0F0"/>
<path d="M243.544 173.384H345.168V65.352L243.544 65.352V173.384Z" fill="#F5F5F5"/>
<path d="M252.056 73.864V164.872H336.656V73.864H252.056Z" fill="white"/>
<path d="M303.72 129.216L319.888 121.72V117.008L303.72 109.496V115.144L313.544 119.376L303.72 123.608V129.216Z" fill="#272838"/>
<path d="M293.176 107.32H290.224L295.456 131.408H298.4L293.176 107.32Z" fill="#272838"/>
<path d="M284.984 123.608L275.2 119.376L285.024 115.144V109.496L268.8 117.008V121.72L284.968 129.216L284.984 123.608Z" fill="#272838"/>
<path d="M93.776 305.92H99.408L99.408 122.576H93.776L93.776 305.92Z" fill="#F0F0F0"/>
<path d="M92.6 304.64L92.448 303.84C93.0273 303.654 93.5624 303.352 94.0205 302.951C94.4786 302.551 94.85 302.061 95.112 301.512C96.576 298.92 97.464 293.392 93.392 281.808C87.12 263.952 90.864 249.552 98.328 220.848C99.624 215.848 101.096 210.184 102.624 204.048C108.36 181.112 103.056 166.888 98.792 155.456C95.488 146.584 92.872 139.576 96.216 131.456L96.96 131.76C93.76 139.584 96.296 146.464 99.544 155.176C103.848 166.704 109.2 181.064 103.4 204.232C101.872 210.36 100.4 216.024 99.104 221.032C91.68 249.6 87.952 263.936 94.152 281.6C98.336 293.512 97.352 299.272 95.752 302C95.4344 302.632 94.991 303.192 94.4489 303.646C93.9069 304.1 93.2777 304.438 92.6 304.64Z" fill="#F0F0F0"/>
<path d="M86.392 305.92H106.784L101.112 302.576H92.064L86.392 305.92Z" fill="#F0F0F0"/>
<path d="M56.248 145.928H136.928L128.048 78.136H65.128L56.248 145.928Z" fill="#F5F5F5"/>
<path d="M175.904 157.104H218.976L213.304 192.264H181.576L175.904 157.104Z" fill="#F0F0F0"/>
<path d="M193.208 168.544C204.952 164.296 213.944 157.912 203.88 144.992C193.816 132.072 178.224 132.136 167.712 137.856C154.32 145.136 157.008 166.216 157.008 166.216C157.008 166.216 181.464 172.8 193.208 168.544Z" fill="#E0E0E0"/>
<path d="M204.624 156.8C195.64 150.68 189.272 143.6 199.696 136.128C210.12 128.656 222.976 132.488 230.704 139.424C240.552 148.272 234.864 163.8 234.864 163.8C234.864 163.8 213.6 162.888 204.624 156.8Z" fill="#E6E6E6"/>
<path d="M188.8 141.272C199.312 140.64 208.128 137.896 203.152 126.512C198.176 115.128 185.552 111.936 175.704 113.888C163.12 116.376 160.152 132.12 160.152 132.12C160.152 132.12 178.296 141.912 188.8 141.272Z" fill="#F0F0F0"/>
<path d="M202 134.56C193.256 131.744 186.4 127.528 193.064 118.976C199.728 110.424 211.064 110.472 218.984 114.248C229.08 119.048 228.184 133.016 228.184 133.016C228.184 133.016 210.744 137.368 202 134.56Z" fill="#EBEBEB"/>
<path d="M185.6 120C194.328 122.88 202.352 123.504 201.992 112.672C201.632 101.84 192.464 95.2 183.84 93.552C172.84 91.504 165.352 103.304 165.352 103.304C165.352 103.304 176.888 117.096 185.6 120Z" fill="#F5F5F5"/>
<path d="M207.752 115.32C201.504 115.752 196.104 114.808 198.152 107.712C200.2 100.616 207.4 97.792 213.352 98.184C220.952 98.688 223.904 107.784 223.904 107.784C223.904 107.784 213.992 114.896 207.752 115.32Z" fill="#FAFAFA"/>
<path d="M200 342.048C285.666 342.048 355.112 337.993 355.112 332.992C355.112 327.99 285.666 323.936 200 323.936C114.334 323.936 44.888 327.99 44.888 332.992C44.888 337.993 114.334 342.048 200 342.048Z" fill="#F5F5F5"/>
<path d="M335.408 200.872H63.608V210.624H335.408V200.872Z" fill="#C83E4D"/>
<path opacity="0.3" d="M136.352 200.872H63.608V210.624H136.352V200.872Z" fill="white"/>
<path d="M137.512 210.624H131.184L134.496 332.848H137.512H140.528L143.848 210.624H137.512Z" fill="#C83E4D"/>
<path opacity="0.3" d="M134.496 332.848H137.512V213.248L131.288 214.384L134.496 332.848Z" fill="white"/>
<path d="M77.536 210.624H71.208L74.52 332.848H77.536H80.552L83.864 210.624H77.536Z" fill="#C83E4D"/>
<path opacity="0.3" d="M74.52 332.848H77.536V213.248L71.304 214.384L74.52 332.848Z" fill="white"/>
<path d="M321.48 210.624H315.152L318.464 332.848H321.48H324.496L327.816 210.624H321.48Z" fill="#C83E4D"/>
<path opacity="0.3" d="M318.464 332.848H321.48V213.248L315.256 214.384L318.464 332.848Z" fill="white"/>
<path d="M261.504 210.624H255.176L258.488 332.848H261.504H264.52L267.832 210.624H261.504Z" fill="#C83E4D"/>
<path opacity="0.3" d="M258.488 332.848H261.504V213.248L255.28 214.384L258.488 332.848Z" fill="white"/>
<path d="M192.624 148.664H128C127.476 148.643 126.954 148.747 126.477 148.966C126 149.186 125.582 149.515 125.257 149.927C124.931 150.339 124.708 150.822 124.605 151.336C124.502 151.851 124.522 152.383 124.664 152.888L133.272 193.968C133.549 195.13 134.197 196.17 135.118 196.931C136.039 197.691 137.183 198.131 138.376 198.184H203.048C203.572 198.204 204.093 198.101 204.569 197.882C205.044 197.663 205.462 197.334 205.787 196.924C206.112 196.513 206.336 196.031 206.439 195.517C206.543 195.004 206.524 194.473 206.384 193.968L197.768 152.888C197.491 151.718 196.837 150.672 195.908 149.909C194.979 149.146 193.825 148.709 192.624 148.664Z" fill="#263238"/>
<path d="M138.936 195.84C138.13 195.786 137.362 195.478 136.741 194.961C136.12 194.443 135.679 193.743 135.48 192.96L126.872 151.88C126.798 151.608 126.787 151.323 126.838 151.046C126.889 150.769 127.002 150.507 127.168 150.28C127.34 150.085 127.554 149.932 127.794 149.831C128.033 149.729 128.292 149.683 128.552 149.696H193.224C194.03 149.75 194.798 150.058 195.419 150.575C196.04 151.093 196.481 151.793 196.68 152.576L205.288 193.656C205.362 193.928 205.373 194.213 205.322 194.49C205.271 194.767 205.158 195.028 204.992 195.256C204.821 195.452 204.607 195.607 204.367 195.708C204.128 195.809 203.868 195.854 203.608 195.84H138.936Z" fill="white"/>
<path opacity="0.4" d="M187.728 192.552L179.568 153.6C179.522 153.369 179.528 153.131 179.584 152.903C179.641 152.675 179.747 152.462 179.895 152.28C180.043 152.097 180.23 151.949 180.441 151.847C180.653 151.745 180.885 151.691 181.12 151.688H191.616C191.98 151.691 192.332 151.818 192.614 152.047C192.896 152.277 193.092 152.596 193.168 152.952L201.328 191.872C201.374 192.103 201.368 192.34 201.312 192.569C201.255 192.797 201.149 193.01 201.001 193.192C200.853 193.375 200.666 193.523 200.454 193.625C200.243 193.727 200.011 193.781 199.776 193.784H189.28C188.921 193.783 188.572 193.661 188.29 193.437C188.009 193.214 187.811 192.902 187.728 192.552Z" fill="#C83E4D"/>
<path d="M132.256 155.096L131.904 153.408H144.864L145.216 155.096H132.256Z" fill="#C83E4D"/>
<path d="M138.24 159.288L137.888 157.6H160.6L160.96 159.288H138.24Z" fill="#EBEBEB"/>
<path d="M139.44 163.472L139.08 161.784H164.544L164.896 163.472H139.44Z" fill="#EBEBEB"/>
<path d="M140.632 167.664L140.28 165.976H160.776L161.136 167.664H140.632Z" fill="#EBEBEB"/>
<path d="M136.2 174.456L135.84 172.768H144.04L144.392 174.456H136.2Z" fill="#C83E4D"/>
<path d="M142.176 178.64L141.824 176.952H151.808L152.168 178.64H142.176Z" fill="#EBEBEB"/>
<path d="M154.56 178.64L154.2 176.952H164.192L164.544 178.64H154.56Z" fill="#EBEBEB"/>
<path d="M143.376 182.832L143.024 181.144H176.784L177.136 182.832H143.376Z" fill="#EBEBEB"/>
<path d="M144.568 187.016L144.216 185.328H169.96L170.312 187.016H144.568Z" fill="#EBEBEB"/>
<path d="M222.816 197.936H137.728C135.408 197.936 133.904 199.256 134.392 200.872H227.92C227.44 199.256 225.136 197.936 222.816 197.936Z" fill="#263238"/>
<path opacity="0.1" d="M109.768 138.28L101.6 99.352C101.555 99.122 101.562 98.885 101.619 98.6577C101.676 98.4305 101.783 98.2186 101.931 98.037C102.079 97.8554 102.265 97.7085 102.476 97.6067C102.687 97.5049 102.918 97.4508 103.152 97.448H169.232C169.595 97.4504 169.946 97.576 170.228 97.8042C170.51 98.0324 170.706 98.3497 170.784 98.704L178.952 137.6C178.998 137.831 178.992 138.069 178.936 138.297C178.879 138.525 178.773 138.738 178.625 138.92C178.477 139.103 178.29 139.251 178.078 139.353C177.867 139.455 177.635 139.509 177.4 139.512H111.32C110.961 139.511 110.612 139.389 110.33 139.165C110.049 138.942 109.851 138.63 109.768 138.28Z" fill="#C83E4D"/>
<path d="M133.256 98.728H119.384L119.072 97.232H132.944L133.256 98.728Z" fill="#C83E4D"/>
<path opacity="0.4" d="M131 101.112H125.432L125.12 99.616H130.688L131 101.112Z" fill="#C83E4D"/>
<path opacity="0.4" d="M140.264 101.112H131.688L131.376 99.616H139.952L140.264 101.112Z" fill="#C83E4D"/>
<path opacity="0.4" d="M144 103.488H125.928L125.616 101.992H143.696L144 103.488Z" fill="#C83E4D"/>
<path opacity="0.4" d="M141.704 105.872H126.424L126.112 104.376H141.392L141.704 105.872Z" fill="#C83E4D"/>
<path opacity="0.4" d="M151.84 131.16H142.112L142.424 132.648H152.152L151.84 131.16Z" fill="#C83E4D"/>
<path d="M139.712 127.896H125.464L125.152 126.4H139.4L139.712 127.896Z" fill="#C83E4D"/>
<path opacity="0.4" d="M145.44 133.536H132.192L132.504 135.032H145.752L145.44 133.536Z" fill="#C83E4D"/>
<path opacity="0.4" d="M141.424 131.16H131.696L132.008 132.648H141.736L141.424 131.16Z" fill="#C83E4D"/>
<path opacity="0.4" d="M150.656 128.776H131.2L131.512 130.272H150.968L150.656 128.776Z" fill="#C83E4D"/>
<path d="M132.768 87.624H117.072L116.76 86.136H132.456L132.768 87.624Z" fill="#C83E4D"/>
<path opacity="0.4" d="M140.52 93.272H123.208L123.52 94.768H140.824L140.52 93.272Z" fill="#C83E4D"/>
<path opacity="0.4" d="M137.056 90.896H122.712L123.024 92.384H137.368L137.056 90.896Z" fill="#C83E4D"/>
<path opacity="0.4" d="M138.008 88.512H122.216L122.528 90.008H138.32L138.008 88.512Z" fill="#C83E4D"/>
<path d="M132.592 109.744H121.68L121.368 108.248H132.28L132.592 109.744Z" fill="#C83E4D"/>
<path opacity="0.4" d="M149.728 115.384H128.408L128.72 116.88H150.032L149.728 115.384Z" fill="#C83E4D"/>
<path opacity="0.4" d="M136.744 113.008H127.912L128.224 114.504H137.056L136.744 113.008Z" fill="#C83E4D"/>
<path opacity="0.4" d="M146.328 113.008H137.496L137.808 114.504H146.64L146.328 113.008Z" fill="#C83E4D"/>
<path opacity="0.4" d="M146.872 110.624H127.416L127.728 112.12H147.176L146.872 110.624Z" fill="#C83E4D"/>
<path opacity="0.4" d="M146.832 122.528H129.896L130.208 124.016H147.144L146.832 122.528Z" fill="#C83E4D"/>
<path opacity="0.4" d="M134.328 120.144H129.4L129.712 121.64H134.632L134.328 120.144Z" fill="#C83E4D"/>
<path opacity="0.4" d="M142.032 120.144H135L135.312 121.64H142.344L142.032 120.144Z" fill="#C83E4D"/>
<path opacity="0.4" d="M148.36 117.768H128.904L129.216 119.256H148.672L148.36 117.768Z" fill="#C83E4D"/>
<path opacity="0.4" d="M163.68 117.368H156.712L156.4 115.872H163.376L163.68 117.368Z" fill="#C83E4D"/>
<path opacity="0.4" d="M175.28 117.368H164.544L164.232 115.872H174.968L175.28 117.368Z" fill="#C83E4D"/>
<path opacity="0.4" d="M179.84 119.752H157.208L156.896 118.256H179.528L179.84 119.752Z" fill="#C83E4D"/>
<path opacity="0.4" d="M176.832 122.128H157.704L157.392 120.632H176.52L176.832 122.128Z" fill="#C83E4D"/>
<path opacity="0.4" d="M185.4 107.904H163.728L164.04 109.392H185.712L185.4 107.904Z" fill="#C83E4D"/>
<path opacity="0.4" d="M181.192 105.52H163.232L163.544 107.016H181.496L181.192 105.52Z" fill="#C83E4D"/>
<path d="M177.944 103.144H158.168L158.48 104.632H178.256L177.944 103.144Z" fill="#C83E4D"/>
<path opacity="0.4" d="M186.376 131.648H159.688L160 133.144H186.688L186.376 131.648Z" fill="#C83E4D"/>
<path opacity="0.4" d="M170.248 129.272H159.192L159.504 130.76H170.56L170.248 129.272Z" fill="#C83E4D"/>
<path opacity="0.4" d="M182.248 129.272H171.192L171.504 130.76H182.56L182.248 129.272Z" fill="#C83E4D"/>
<path opacity="0.4" d="M183.048 126.888H158.696L159.008 128.384H183.36L183.048 126.888Z" fill="#C83E4D"/>
<path opacity="0.4" d="M182.376 138.784H161.176L161.488 140.28H182.688L182.376 138.784Z" fill="#C83E4D"/>
<path opacity="0.4" d="M166.848 136.408H160.68L160.992 137.904H167.16L166.848 136.408Z" fill="#C83E4D"/>
<path opacity="0.4" d="M176.496 136.408H167.696L168.008 137.904H176.808L176.496 136.408Z" fill="#C83E4D"/>
<path opacity="0.4" d="M184.544 134.024H160.184L160.496 135.52H184.848L184.544 134.024Z" fill="#C83E4D"/>
<path opacity="0.4" d="M119.68 140.632H103.088L103.4 142.128H119.992L119.68 140.632Z" fill="#C83E4D"/>
<path opacity="0.4" d="M114.776 138.256H102.592L102.904 139.744H115.08L114.776 138.256Z" fill="#C83E4D"/>
<path opacity="0.4" d="M127.808 138.256H115.632L115.944 139.744H128.128L127.808 138.256Z" fill="#C83E4D"/>
<path opacity="0.4" d="M126.456 135.872H102.096L102.408 137.368H126.76L126.456 135.872Z" fill="#C83E4D"/>
<path d="M312.76 185.328H302.488L303.688 200.872H311.56L312.76 185.328Z" fill="#C83E4D"/>
<path opacity="0.4" d="M312.76 185.328H302.488L303.688 200.872H311.56L312.76 185.328Z" fill="white"/>
<path d="M88.904 174.536H103.672L98.632 200.872H83.864L88.904 174.536Z" fill="#263238"/>
<path d="M107.712 167.48H86.856L92.696 200.872H113.552L107.712 167.48Z" fill="#C83E4D"/>
<path d="M85.624 167.48H86.856L92.696 200.872H91.464L85.624 167.48Z" fill="#C83E4D"/>
<path opacity="0.3" d="M85.624 167.48H86.856L92.696 200.872H91.464L85.624 167.48Z" fill="black"/>
<path d="M95.696 197.296L91.104 171.048H104.72L109.304 197.296H95.696Z" fill="white"/>
<path opacity="0.6" d="M108.656 197.296L104.072 171.048H104.72L109.304 197.296H108.656Z" fill="#C83E4D"/>
<path d="M211.016 124.8C211.312 125.44 211.216 126.12 210.792 126.312C210.368 126.504 209.792 126.144 209.496 125.512C209.2 124.88 209.304 124.192 209.72 124C210.136 123.808 210.72 124.128 211.016 124.8Z" fill="#263238"/>
<path d="M211.272 126.064C211.272 126.064 211.528 130.432 210.744 132.96C212.344 133.496 214.072 132.16 214.072 132.16L211.272 126.064Z" fill="#FF5652"/>
<path d="M211.096 119.512C211.028 119.568 210.944 119.602 210.856 119.608C210.335 119.622 209.825 119.759 209.368 120.008C208.91 120.257 208.518 120.61 208.224 121.04C208.198 121.089 208.162 121.133 208.118 121.168C208.075 121.203 208.025 121.229 207.971 121.244C207.918 121.259 207.861 121.264 207.806 121.257C207.751 121.25 207.697 121.232 207.649 121.204C207.601 121.176 207.558 121.139 207.525 121.094C207.491 121.05 207.467 120.999 207.453 120.945C207.44 120.891 207.437 120.834 207.446 120.779C207.455 120.724 207.474 120.671 207.504 120.624C207.866 120.074 208.356 119.619 208.931 119.297C209.506 118.976 210.15 118.797 210.808 118.776C210.895 118.771 210.982 118.794 211.056 118.841C211.13 118.889 211.186 118.958 211.218 119.04C211.25 119.121 211.256 119.211 211.234 119.296C211.212 119.38 211.163 119.456 211.096 119.512Z" fill="#263238"/>
<path d="M234.576 123.808C237.048 132.368 239.808 139.008 243.176 142.8C243.176 142.8 243.24 149.528 231.776 152.728C219.168 156.248 224 148.152 224 148.152C230.4 144.592 229.792 139.216 224.976 137.168L234.576 123.808Z" fill="#FF8B7B"/>
<path d="M245.848 141.16C245.624 138.032 245.328 134.464 243.4 134.368C241.272 134.272 228.952 139.776 226.32 143.656C223.688 147.536 228.832 151.336 228.832 151.336L245.848 141.16Z" fill="#263238"/>
<path d="M220.632 189.6L209.992 189.248L210.184 198.16C210.184 198.16 219.464 197.2 219.872 194.76L220.632 189.6Z" fill="#FF8B7B"/>
<path d="M204.368 193.624L203.248 198.184L210.184 198.168L209.992 189.256L204.368 193.624Z" fill="#FF8B7B"/>
<path d="M263.336 152.568L263.112 154.856C263.04 155.592 262.944 156.312 262.848 157.04C262.664 158.488 262.432 159.936 262.184 161.376C261.704 164.264 261.08 167.136 260.36 170.024C259.628 172.967 258.742 175.87 257.704 178.72C257.152 180.184 256.576 181.648 255.888 183.136C255.194 184.697 254.393 186.207 253.488 187.656C253.272 188.032 253 188.456 252.736 188.808C252.472 189.16 252.216 189.608 251.936 189.976C251.656 190.344 251.36 190.776 250.992 191.152L250.472 191.744C250.286 191.962 250.088 192.171 249.88 192.368C248.277 193.938 246.397 195.199 244.336 196.088C241.174 197.444 237.818 198.295 234.392 198.608C232.832 198.792 231.288 198.864 229.776 198.904C228.264 198.944 226.752 198.904 225.264 198.824C223.776 198.744 222.304 198.616 220.84 198.44C219.376 198.264 217.952 198.032 216.4 197.72L216.656 189.36C221.764 188.467 226.813 187.265 231.776 185.76C232.88 185.401 233.964 184.985 235.024 184.512C235.927 184.131 236.789 183.662 237.6 183.112C238.071 182.828 238.471 182.439 238.768 181.976L239 181.608C239.107 181.451 239.206 181.288 239.296 181.12C239.41 180.936 239.514 180.747 239.608 180.552C239.712 180.344 239.824 180.152 239.928 179.92C240.868 177.868 241.641 175.744 242.24 173.568C242.896 171.216 243.512 168.768 244.008 166.232C244.504 163.696 244.984 161.136 245.424 158.552L246.032 154.664L246.584 150.88L263.336 152.568Z" fill="#C83E4D"/>
<path opacity="0.2" d="M263.336 152.568L263.112 154.856C263.04 155.592 262.944 156.312 262.848 157.04C262.664 158.488 262.432 159.936 262.184 161.376C261.704 164.264 261.08 167.136 260.36 170.024C259.628 172.967 258.742 175.87 257.704 178.72C257.152 180.184 256.576 181.648 255.888 183.136C255.194 184.697 254.393 186.207 253.488 187.656C253.272 188.032 253 188.456 252.736 188.808C252.472 189.16 252.216 189.608 251.936 189.976C251.656 190.344 251.36 190.776 250.992 191.152L250.472 191.744C250.286 191.962 250.088 192.171 249.88 192.368C248.277 193.938 246.397 195.199 244.336 196.088C241.174 197.444 237.818 198.295 234.392 198.608C232.832 198.792 231.288 198.864 229.776 198.904C228.264 198.944 226.752 198.904 225.264 198.824C223.776 198.744 222.304 198.616 220.84 198.44C219.376 198.264 217.952 198.032 216.4 197.72L216.656 189.36C221.764 188.467 226.813 187.265 231.776 185.76C232.88 185.401 233.964 184.985 235.024 184.512C235.927 184.131 236.789 183.662 237.6 183.112C238.071 182.828 238.471 182.439 238.768 181.976L239 181.608C239.107 181.451 239.206 181.288 239.296 181.12C239.41 180.936 239.514 180.747 239.608 180.552C239.712 180.344 239.824 180.152 239.928 179.92C240.868 177.868 241.641 175.744 242.24 173.568C242.896 171.216 243.512 168.768 244.008 166.232C244.504 163.696 244.984 161.136 245.424 158.552L246.032 154.664L246.584 150.88L263.336 152.568Z" fill="black"/>
<path d="M216.096 163.2C220.063 180.303 222.295 197.762 222.76 215.312H269.6C269.856 209.528 268.88 176.912 264.168 153.352C263.75 151.218 262.909 149.189 261.696 147.385C260.482 145.58 258.92 144.036 257.102 142.844C255.283 141.651 253.245 140.834 251.106 140.441C248.968 140.047 246.772 140.085 244.648 140.552L244.424 140.608C238.576 141.936 230.184 144.08 225.224 145.96L225.024 146.04C221.707 147.33 218.972 149.782 217.329 152.939C215.687 156.096 215.248 159.743 216.096 163.2Z" fill="#C83E4D"/>
<path opacity="0.2" d="M219.144 178.16C219.512 180.408 219.888 182.792 220.232 185.288C224.064 181.288 225.28 169.032 225.28 169.032L219.144 178.16Z" fill="black"/>
<path d="M180.232 190.184L169.6 189.192L169.248 198.096C171.005 198.581 172.862 198.576 174.616 198.081C176.37 197.586 177.956 196.62 179.2 195.288L180.232 190.184Z" fill="#FF8B7B"/>
<path d="M164.544 191.816L161.136 197.936L169.28 198.096L169.632 189.192L164.544 191.816Z" fill="#FF8B7B"/>
<path d="M233.672 159.096C232.936 160.496 232.28 161.736 231.544 163.016C230.808 164.296 230.104 165.544 229.344 166.784C227.84 169.28 226.28 171.728 224.632 174.152C221.323 179.116 217.658 183.832 213.664 188.264C211.525 190.65 209.201 192.862 206.712 194.88C206.4 195.144 206.032 195.4 205.688 195.68C205.344 195.96 205.04 196.184 204.528 196.48C204.016 196.776 203.584 197.072 203.12 197.328C202.656 197.584 202.176 197.816 201.704 198.024C199.939 198.79 198.093 199.351 196.2 199.696C192.89 200.254 189.516 200.33 186.184 199.92C184.623 199.741 183.074 199.474 181.544 199.12C180.781 198.944 180.029 198.744 179.288 198.52C178.488 198.296 177.84 198.048 176.984 197.72L178.304 189.464C183.328 188.784 188.76 187.912 192.504 186.216C193.335 185.875 194.118 185.425 194.832 184.88C195.12 184.682 195.387 184.457 195.632 184.208C195.688 184.136 195.936 183.92 196.12 183.744C196.304 183.568 196.52 183.4 196.72 183.192C198.432 181.495 200.036 179.692 201.52 177.792C204.741 173.637 207.75 169.322 210.536 164.864C211.976 162.6 213.376 160.296 214.776 157.984L216.84 154.512L218.832 151.096L233.672 159.096Z" fill="#C83E4D"/>
<path d="M220.816 326.08H212.064L207.656 305.8H216.416L220.816 326.08Z" fill="#FF8B7B"/>
<path d="M211.576 324.208H221.416C221.587 324.214 221.752 324.275 221.886 324.381C222.019 324.488 222.116 324.635 222.16 324.8L223.888 332.592C223.929 332.781 223.927 332.977 223.881 333.166C223.836 333.354 223.748 333.529 223.625 333.679C223.502 333.828 223.346 333.948 223.17 334.028C222.994 334.109 222.802 334.148 222.608 334.144C219.176 334.088 217.504 333.888 213.176 333.888C210.512 333.888 207.096 334.16 203.424 334.16C199.752 334.16 199.264 330.528 200.768 330.2C207.52 328.72 207.968 326.688 210.152 324.744C210.544 324.395 211.051 324.204 211.576 324.208Z" fill="#263238"/>
<g opacity="0.2">
<path opacity="0.2" d="M216.424 305.808H207.656L210.104 317.04L218.696 316.264L216.424 305.808Z" fill="black"/>
</g>
<path d="M231.768 113.52C234.968 121.616 237.192 126.2 235.08 132.08C231.88 140.92 220.528 141.816 215.008 134.824C210.048 128.528 205.712 116.344 211.976 109.648C213.348 108.164 215.076 107.055 216.998 106.427C218.919 105.799 220.969 105.673 222.952 106.061C224.936 106.449 226.787 107.338 228.33 108.644C229.873 109.949 231.057 111.628 231.768 113.52Z" fill="#FF8B7B"/>
<path d="M216.392 125.648C215.08 127.408 214.072 128.744 214.072 128.744C214.072 128.744 211.376 122.048 212.408 118.976C211.096 116.376 208.448 120.208 207.448 115.144C206.448 110.08 210.776 104.64 212.408 103.512C212.576 104.102 212.652 104.715 212.632 105.328C217.042 101.749 222.647 99.9792 228.312 100.376C227.838 101.08 227.537 101.886 227.432 102.728C227.432 102.728 236.928 104.328 239.088 109.704C238.324 109.339 237.518 109.071 236.688 108.904C238.429 111.4 239.118 114.48 238.608 117.48C237.919 121.855 237.561 126.275 237.536 130.704C237.624 132.976 231.392 137.32 227.592 132.68C223.792 128.04 216.392 125.648 216.392 125.648Z" fill="#263238"/>
<path d="M220.352 123.904C220.848 125.79 220.707 127.786 219.952 129.584C218.936 131.984 216.848 131.408 215.816 129.312C214.88 127.432 214.28 123.944 215.936 122.272C217.592 120.6 219.728 121.64 220.352 123.904Z" fill="#FF8B7B"/>
<path d="M236.8 215.28C236.8 215.28 196.128 230.032 194.936 249.544C192.728 285.488 207.424 313.944 207.424 313.944L220.896 312.504C220.896 312.504 218.496 300.936 216.712 268.376C214.464 227.456 283.912 269.336 269.608 215.28H236.8Z" fill="#C83E4D"/>
<path opacity="0.5" d="M236.8 215.28C236.8 215.28 196.128 230.032 194.936 249.544C192.728 285.488 207.424 313.944 207.424 313.944L220.896 312.504C220.896 312.504 218.496 300.936 216.712 268.376C214.464 227.456 283.912 269.336 269.608 215.28H236.8Z" fill="white"/>
<path d="M203.696 308.984C203.632 308.984 205.84 314.968 205.84 314.968L222.64 313.32L221.8 307.88L203.696 308.984Z" fill="#C83E4D"/>
<path d="M182.984 327.08H174.224L171.664 306.792H180.424L182.984 327.08Z" fill="#FF8B7B"/>
<path d="M174.16 324.2H183.76C183.933 324.198 184.102 324.256 184.237 324.364C184.373 324.471 184.467 324.623 184.504 324.792L186.248 332.576C186.299 332.767 186.305 332.966 186.265 333.16C186.226 333.353 186.141 333.535 186.02 333.69C185.898 333.845 185.742 333.97 185.563 334.054C185.385 334.138 185.189 334.18 184.992 334.176C181.544 334.12 176.552 333.928 172.192 333.936C167.12 333.936 166.152 334.216 160.192 334.224C156.592 334.224 155.592 330.6 157.096 330.224C163.944 328.72 166.136 328.552 172.048 324.896C172.672 324.469 173.404 324.228 174.16 324.2Z" fill="#263238"/>
<path opacity="0.2" d="M171.672 306.8L173.064 317.848L181.752 317.256L180.432 306.8H171.672Z" fill="black"/>
<path d="M222.76 215.28C222.76 215.28 156.12 221.192 156.84 254.664C157.584 289.48 170.592 312.96 170.592 312.96H183.6C183.6 312.96 181.136 294.896 181.576 260.624C181.704 250.36 202.456 246.968 222.712 245.768C240.216 244.728 256.6 234.752 263.4 218.568L264.8 215.28H222.76Z" fill="#C83E4D"/>
<path opacity="0.5" d="M222.76 215.28C222.76 215.28 156.12 221.192 156.84 254.664C157.584 289.48 170.592 312.96 170.592 312.96H183.6C183.6 312.96 181.136 294.896 181.576 260.624C181.704 250.36 202.456 246.968 222.712 245.768C240.216 244.728 256.6 234.752 263.4 218.568L264.8 215.28H222.76Z" fill="white"/>
<path d="M167.544 309.464C167.488 309.464 169.776 315.48 169.776 315.48L185.488 314.352L184.568 308.912L167.544 309.464Z" fill="#C83E4D"/>
<path d="M240.256 177.664L231.8 210.248C229.638 218.596 228.546 227.185 228.552 235.808V250.952C228.552 254.776 231.368 257.88 234.848 257.88H278.192C281.672 257.88 284.488 254.776 284.488 250.952V235.808C284.485 227.184 285.579 218.595 287.744 210.248L295.208 181.448C296.36 177.024 293.336 172.648 289.152 172.648H246.304C244.882 172.693 243.515 173.21 242.42 174.119C241.324 175.027 240.563 176.275 240.256 177.664Z" fill="#263238"/>
<path d="M186.344 242.104L187.76 250.184C188.512 254.432 192.248 257.88 196.112 257.88H244.296C248.16 257.88 250.696 254.432 249.944 250.184L248.528 242.104C247.672 237.264 243.424 233.344 239.024 233.344H192.8C188.368 233.344 185.496 237.264 186.344 242.104Z" fill="#263238"/>
<path d="M248.936 265.992H223.696L221.232 257.88H251.4L248.936 265.992Z" fill="#C83E4D"/>
<path d="M240.824 265.992H231.808V326.32H240.824V265.992Z" fill="#C83E4D"/>
<path opacity="0.7" d="M240.824 326.32H231.808V267.44L240.824 268.36V326.32Z" fill="white"/>
<path opacity="0.7" d="M238.624 326.32H236.472V267.912L238.624 268.136V326.32Z" fill="white"/>
<path d="M257.048 335.648H215.576C215.334 335.646 215.099 335.568 214.904 335.424C214.71 335.281 214.565 335.08 214.49 334.85C214.416 334.62 214.416 334.372 214.49 334.142C214.564 333.912 214.709 333.711 214.904 333.568L221.48 328.768C224.641 326.453 228.457 325.203 232.376 325.2H240.256C244.172 325.204 247.985 326.454 251.144 328.768L257.728 333.568C257.923 333.712 258.068 333.913 258.142 334.144C258.216 334.375 258.216 334.623 258.14 334.854C258.065 335.084 257.919 335.285 257.723 335.428C257.527 335.57 257.29 335.647 257.048 335.648Z" fill="#C83E4D"/>
</svg>
