<svg width="25" height="25" viewBox="0 0 25 25" fill="none" xmlns="http://www.w3.org/2000/svg">
<path d="M24.4091 14.1779C24.1535 14.114 23.8979 14.1779 23.6742 14.3376C22.8436 15.0405 21.8851 15.6156 20.8308 15.999C19.8403 16.3824 18.7541 16.5741 17.6039 16.5741C15.016 16.5741 12.6518 15.5198 10.9585 13.8265C9.26522 12.1332 8.2109 9.76894 8.2109 7.18107C8.2109 6.0948 8.40259 5.04048 8.72208 4.08201C9.07352 3.05964 9.58471 2.13312 10.2556 1.3344C10.5432 0.982957 10.4793 0.471772 10.1278 0.184231C9.9042 0.0244859 9.64861 -0.0394121 9.39301 0.024486C6.67735 0.759314 4.31312 2.38871 2.61982 4.56125C0.99042 6.70183 0 9.3536 0 12.261C0 15.7434 1.40576 18.9064 3.70609 21.2067C6.00642 23.507 9.16937 24.9128 12.6518 24.9128C15.5911 24.9128 18.3068 23.8904 20.4793 22.1971C22.6838 20.4719 24.2813 18.0118 24.9522 15.2003C25.1119 14.721 24.8563 14.2738 24.4091 14.1779ZM19.5209 20.8553C17.6678 22.3249 15.3036 23.2195 12.7157 23.2195C9.68056 23.2195 6.93294 21.9735 4.9521 19.9926C2.97126 18.0118 1.72525 15.2642 1.72525 12.229C1.72525 9.70504 2.55592 7.40471 3.99363 5.55167C4.98405 4.27371 6.23006 3.21939 7.66777 2.48456C7.50802 2.836 7.34828 3.18744 7.22048 3.57083C6.80514 4.72099 6.61345 5.93506 6.61345 7.21302C6.61345 10.2482 7.85946 13.0277 9.8403 15.0086C11.8211 16.9894 14.6007 18.2354 17.6359 18.2354C18.9777 18.2354 20.2557 18.0118 21.4378 17.5645C21.8531 17.4048 22.2685 17.245 22.6519 17.0533C21.8851 18.523 20.8308 19.8329 19.5209 20.8553Z" fill="#F4F4F9"/>
</svg>
