<svg width="25" height="25" viewBox="0 0 25 25" fill="none" xmlns="http://www.w3.org/2000/svg">
<path d="M5.9082 12.5C5.9082 16.1347 8.86528 19.0918 12.5 19.0918C16.1347 19.0918 19.0918 16.1347 19.0918 12.5C19.0918 8.86528 16.1347 5.9082 12.5 5.9082C8.86528 5.9082 5.9082 8.86528 5.9082 12.5ZM12.5 7.37305C15.327 7.37305 17.627 9.673 17.627 12.5C17.627 15.327 15.327 17.627 12.5 17.627C9.673 17.627 7.37305 15.327 7.37305 12.5C7.37305 9.673 9.673 7.37305 12.5 7.37305Z" fill="#F4F4F9"/>
<path d="M18.1971 18.1969C17.911 18.483 17.911 18.9467 18.1971 19.2327L21.7335 22.7691C22.0195 23.0552 22.4832 23.0552 22.7693 22.7691C23.0553 22.4831 23.0553 22.0194 22.7693 21.7334L19.2329 18.1969C18.9468 17.9108 18.4831 17.9108 18.1971 18.1969Z" fill="#F4F4F9"/>
<path d="M3.26667 2.23085C2.98069 1.94482 2.51692 1.94482 2.23088 2.23085C1.94485 2.51689 1.94485 2.98061 2.23088 3.26665L5.76731 6.80307C6.0533 7.08911 6.51707 7.08916 6.8031 6.80307C7.08914 6.51704 7.08914 6.05332 6.8031 5.76728L3.26667 2.23085Z" fill="#F4F4F9"/>
<path d="M2.23088 22.7691C2.51687 23.0552 2.98064 23.0552 3.26667 22.7691L6.8031 19.2327C7.08914 18.9467 7.08914 18.483 6.8031 18.1969C6.51711 17.9109 6.05334 17.9109 5.76731 18.1969L2.23088 21.7333C1.94485 22.0194 1.94485 22.4831 2.23088 22.7691Z" fill="#F4F4F9"/>
<path d="M22.7693 2.23085C22.4833 1.94482 22.0195 1.94482 21.7335 2.23085L18.1971 5.76728C17.911 6.05332 17.911 6.51704 18.1971 6.80307C18.4831 7.08911 18.9468 7.08916 19.2329 6.80307L22.7693 3.26665C23.0553 2.98061 23.0553 2.51689 22.7693 2.23085Z" fill="#F4F4F9"/>
<path d="M15.5831 19.9434C15.2094 20.0982 15.032 20.5266 15.1867 20.9004L15.7473 22.2537C15.9019 22.6268 16.33 22.8051 16.7043 22.6501C17.078 22.4953 17.2554 22.0668 17.1007 21.6931L16.5401 20.3398C16.3853 19.966 15.9569 19.7886 15.5831 19.9434Z" fill="#F4F4F9"/>
<path d="M9.41686 5.05665C9.79059 4.90186 9.96803 4.4734 9.81324 4.09967L9.25269 2.74634C9.09786 2.37261 8.66944 2.19522 8.29571 2.34996C7.92198 2.50474 7.74454 2.93321 7.89932 3.30694L8.45987 4.66026C8.61451 5.03341 9.04259 5.21168 9.41686 5.05665Z" fill="#F4F4F9"/>
<path d="M4.09959 15.1867L2.74627 15.7473C2.37254 15.9021 2.1951 16.3305 2.34989 16.7043C2.50448 17.0774 2.9326 17.2557 3.30687 17.1006L4.66019 16.5401C5.03392 16.3853 5.21136 15.9568 5.05658 15.5831C4.90179 15.2094 4.47337 15.032 4.09959 15.1867Z" fill="#F4F4F9"/>
<path d="M20.9003 9.81328L22.2536 9.25273C22.6274 9.09795 22.8048 8.66948 22.65 8.29575C22.4952 7.92202 22.0668 7.74463 21.693 7.89936L20.3397 8.45991C19.966 8.6147 19.7885 9.04316 19.9433 9.41689C20.0979 9.79004 20.526 9.96826 20.9003 9.81328Z" fill="#F4F4F9"/>
<path d="M8.45993 20.3398L7.89939 21.6931C7.7446 22.0668 7.92204 22.4952 8.29577 22.6501C8.67102 22.8054 9.09856 22.6259 9.25276 22.2537L9.8133 20.9004C9.96809 20.5266 9.79065 20.0982 9.41692 19.9434C9.04314 19.7886 8.61472 19.966 8.45993 20.3398Z" fill="#F4F4F9"/>
<path d="M16.54 4.66026L17.1006 3.30694C17.2554 2.93321 17.0779 2.50479 16.7042 2.34996C16.3305 2.19522 15.9021 2.37261 15.7472 2.74634L15.1867 4.09967C15.0319 4.4734 15.2093 4.90181 15.5831 5.05665C15.9583 5.21202 16.3859 5.03248 16.54 4.66026Z" fill="#F4F4F9"/>
<path d="M4.66019 8.4599L3.30687 7.89935C2.93314 7.74457 2.50472 7.92201 2.34989 8.29574C2.1951 8.66947 2.37254 9.09789 2.74627 9.25272L4.09959 9.81327C4.47484 9.96864 4.90238 9.7891 5.05658 9.41688C5.21136 9.04315 5.03392 8.61469 4.66019 8.4599Z" fill="#F4F4F9"/>
<path d="M22.2536 15.7473L20.9003 15.1868C20.5266 15.032 20.0982 15.2094 19.9433 15.5832C19.7885 15.9569 19.966 16.3853 20.3397 16.5401L21.693 17.1007C22.0683 17.2561 22.4958 17.0765 22.65 16.7043C22.8048 16.3306 22.6274 15.9021 22.2536 15.7473Z" fill="#F4F4F9"/>
<path d="M11.7676 21.2891V24.2676C11.7676 24.6721 12.0955 25 12.5 25C12.9045 25 13.2324 24.6721 13.2324 24.2676V21.2891C13.2324 20.8846 12.9045 20.5566 12.5 20.5566C12.0955 20.5566 11.7676 20.8846 11.7676 21.2891Z" fill="#F4F4F9"/>
<path d="M13.2324 3.71094V0.732422C13.2324 0.32793 12.9045 0 12.5 0C12.0955 0 11.7676 0.32793 11.7676 0.732422V3.71094C11.7676 4.11543 12.0955 4.44336 12.5 4.44336C12.9045 4.44336 13.2324 4.11543 13.2324 3.71094Z" fill="#F4F4F9"/>
<path d="M0 12.5C0 12.9045 0.32793 13.2324 0.732422 13.2324H3.71094C4.11543 13.2324 4.44336 12.9045 4.44336 12.5C4.44336 12.0955 4.11543 11.7676 3.71094 11.7676H0.732422C0.32793 11.7676 0 12.0955 0 12.5Z" fill="#F4F4F9"/>
<path d="M24.2676 11.7676H21.2891C20.8846 11.7676 20.5566 12.0955 20.5566 12.5C20.5566 12.9045 20.8846 13.2324 21.2891 13.2324H24.2676C24.6721 13.2324 25 12.9045 25 12.5C25 12.0955 24.6721 11.7676 24.2676 11.7676Z" fill="#F4F4F9"/>
</svg>
